<svg xmlns="http://www.w3.org/2000/svg" width="800" height="800" viewBox="0 0 800 800">
  <rect width="800" height="800" fill="white"/>
  <polygon points="684,85,748,03 687,26,748,89 689,67,749,92 692,09,750,94 695,75,752,83 697,99,754,09 700,14,755,44 702,20,756,94 704,26,758,44 706,17,760,00 760,00,720,96 759,15,721,28 758,09,721,68 756,93,722,00 737,12,699,88 668,35,623,04 508,11,435,88 508,42,435,65 508,10,435,89 481,93,405,03 482,27,403,28 367,88,273,87 310,15,207,80 309,16,205,33 308,20,194,20 309,07,190,22 311,72,185,43 400,54,122,18 440,93,92,98 420,62,40,00 419,42,40,15 410,98,46,39 313,89,97,12 212,64,165,98 119,67,224,62 115,50,227,30 88,89,251,29 40,00,303,89 44,46,307,12 75,65,275,21 98,71,253,63 129,81,233,60 136,92,230,38 159,17,222,33 167,19,220,70 182,35,220,63 195,74,222,96 204,67,226,10 204,75,226,14 220,42,235,57 222,67,237,16 228,95,242,70 231,62,246,67 234,29,249,83 236,96,253,79 238,75,256,97 239,73,258,00 271,92,290,23 373,40,412,60 384,19,428,15 393,63,438,50 406,62,452,71 411,57,451,79 433,44,476,68 477,94,527,32 517,20,571,99 563,80,625,01 602,10,668,59 601,82,669,88 601,47,671,40 601,04,672,91 600,51,674,35 599,98,675,86 599,37,677,29 598,66,678,73 597,87,680,09 597,07,681,52 596,19,682,80 595,22,684,16 594,24,685,43 593,18,686,63 592,03,687,83 590,87,689,03 589,63,690,07 588,39,691,19 587,06,692,15 585,64,693,11 584,21,694,07 570,48,703,37 603,30,741,88 605,08,740,44 606,85,739,16 608,72,737,87 610,59,736,67 612,54,735,55 614,59,734,51 616,63,733,46 618,77,732,58 620,90,731,77 623,48,730,88 625,71,730,24 627,94,729,67 630,25,729,18 632,57,728,77 634,88,728,45 637,20,728,20 639,52,728,11 641,84,728,02 644,16,728,09 646,48,728,15 648,88,728,38 651,20,728,61 653,44,729,00 655,55,729,42 656,56,729,62 684,88,738,96 688,19,740,06 684,85,748,03" fill="none" stroke="black" stroke-width="5"/>
  <text x="40" y="30" font-family="Segoe UI,Arial" font-size="20">Row 773 / parcel 20905827</text>
</svg>