<svg xmlns="http://www.w3.org/2000/svg" width="800" height="800" viewBox="0 0 800 800">
  <rect width="800" height="800" fill="white"/>
  <polygon points="380,93,689,89 381,03,690,24 379,63,695,01 378,06,700,30 376,31,706,23 374,63,711,89 374,39,712,76 372,77,718,58 372,47,719,67 370,85,725,51 369,34,730,97 367,85,736,31 366,62,740,74 368,39,740,95 392,69,743,81 500,23,756,54 529,46,760,00 530,52,755,26 531,72,749,93 532,97,744,35 534,29,738,46 534,55,737,31 535,85,731,55 536,09,730,50 537,48,724,33 538,65,719,12 539,87,713,68 540,93,705,84 570,53,704,82 511,84,704,10 512,19,702,35 540,12,587,31 607,25,587,25 618,91,549,92 619,20,548,98 644,07,545,99 650,16,534,82 655,39,509,96 664,01,475,08 667,87,459,44 673,68,459,49 673,53,452,86 637,80,452,44 642,15,433,10 633,52,432,99 635,35,427,80 639,62,415,71 631,01,415,73 604,34,415,78 580,83,415,83 587,78,395,13 597,40,367,89 597,90,366,20 600,96,360,98 559,46,362,45 566,05,352,68 571,34,349,80 573,37,348,87 575,00,347,86 576,63,346,93 578,25,346,13 579,07,345,39 579,89,344,59 579,90,343,25 579,11,341,77 583,10,312,32 587,86,286,09 584,65,283,34 580,62,282,20 581,47,278,92 582,72,276,04 583,56,273,10 583,99,270,89 584,02,268,55 583,64,266,20 583,67,263,93 581,32,257,50 580,54,255,43 579,75,253,42 576,57,248,86 573,38,245,11 573,82,242,37 574,67,238,56 574,72,234,81 574,35,231,26 573,59,227,71 572,00,224,83 570,42,221,89 567,25,216,80 564,85,214,19 557,26,207,09 552,46,202,74 548,06,198,52 542,85,194,30 533,25,186,00 526,84,181,17 520,43,176,29 514,82,172,20 508,80,168,05 495,96,159,68 491,14,157,13 483,91,153,11 479,09,150,90 474,26,148,63 465,43,143,47 460,92,141,45 454,97,138,78 445,62,136,54 407,40,127,38 477,79,123,86 514,13,127,42 760,00,151,36 715,38,140,88 618,70,132,11 567,09,127,44 525,09,123,67 480,26,119,71 436,24,115,75 384,15,111,04 376,69,108,11 374,29,107,89 330,86,92,79 288,46,78,04 285,28,76,93 281,25,75,53 232,07,58,41 187,54,42,92 186,04,42,40 184,92,42,01 176,53,41,86 172,74,41,79 98,69,40,47 72,62,40,00 87,75,45,27 138,12,62,78 141,83,64,07 145,10,65,21 188,80,80,41 230,68,94,97 232,53,95,14 240,37,98,35 250,04,101,29 252,45,102,23 255,68,103,30 260,51,104,78 264,94,106,05 267,41,106,88 259,30,104,71 201,55,98,94 188,23,97,59 138,56,92,82 98,58,89,13 96,96,88,93 94,13,88,73 90,50,88,46 85,65,88,05 63,84,86,44 58,99,86,11 52,53,85,70 51,32,85,63 44,45,85,36 40,00,85,23 76,30,92,80 88,63,95,39 91,22,95,69 121,28,99,04 145,29,101,89 285,38,121,52 311,11,133,85 315,94,135,52 321,57,137,95 330,82,141,75 332,99,142,88 342,49,146,98 356,96,154,08 362,18,156,62 367,00,159,10 369,41,160,37 371,82,161,71 373,92,162,76 375,44,163,52 379,06,165,40 382,67,167,61 385,88,169,75 391,10,173,10 396,31,176,38 401,93,180,13 407,95,183,88 409,86,185,24 413,16,187,56 417,56,191,31 423,97,196,67 428,37,200,55 432,37,204,44 432,82,204,84 437,57,208,99 442,37,213,54 447,96,219,44 452,33,225,26 453,13,226,20 454,81,228,60 455,52,229,61 456,34,230,93 458,29,234,03 460,67,237,98 462,24,241,87 465,36,251,97 465,57,253,31 466,87,261,35 467,64,264,22 468,42,267,04 469,17,271,39 469,15,273,66 468,72,275,87 468,59,276,58 468,28,278,28 467,45,280,69 467,01,283,37 466,98,286,11 462,59,298,41 454,85,320,11 443,91,322,79 433,36,325,46 424,84,327,87 416,73,330,34 406,99,333,42 398,06,336,63 396,03,337,57 385,46,341,91 377,33,346,33 376,11,346,86 368,77,351,68 363,06,356,50 359,78,360,25 356,90,364,13 354,02,368,74 351,94,373,43 343,44,409,24 340,87,420,82 329,86,463,52 329,03,465,19 329,02,465,80 327,40,466,33 325,78,466,60 322,95,467,00 319,30,467,40 313,64,467,80 308,38,468,13 304,33,468,40 299,88,468,53 299,43,472,55 295,55,493,70 295,54,494,30 294,68,498,18 306,03,495,84 317,78,493,24 351,02,486,15 348,07,496,33 346,80,500,74 344,25,511,79 342,96,518,01 337,40,543,50 335,70,551,28 336,50,551,95 338,11,552,48 352,22,555,84 357,88,555,84 361,10,555,87 357,63,572,34 331,36,577,48 327,37,593,30 327,04,595,21 403,47,601,22 397,49,625,00 389,86,656,55 388,56,661,94 380,93,689,89" fill="none" stroke="black" stroke-width="5"/>
  <text x="40" y="30" font-family="Segoe UI,Arial" font-size="20">Row 61 / parcel 57224151</text>
</svg>