<svg xmlns="http://www.w3.org/2000/svg" width="800" height="800" viewBox="0 0 800 800">
  <rect width="800" height="800" fill="white"/>
  <polygon points="40,00,75,97 121,22,213,55 126,57,222,55 140,45,239,01 155,84,267,10 193,07,324,66 225,01,366,68 249,12,406,83 251,52,410,60 291,84,477,42 315,76,513,81 318,96,518,65 349,45,567,01 352,37,571,66 361,98,588,33 366,20,594,87 370,73,600,77 375,85,608,63 385,21,621,08 389,45,626,01 397,93,635,20 402,78,639,49 407,33,643,77 417,66,652,34 422,81,657,60 428,58,663,19 434,04,668,13 439,50,673,40 444,04,678,00 448,28,682,60 452,52,687,85 456,44,693,09 459,76,697,68 463,07,702,91 470,63,712,10 485,39,734,36 500,13,758,56 509,87,759,89 510,55,760,00 635,32,619,97 650,87,603,00 666,42,586,67 689,43,562,01 712,43,538,00 731,08,518,80 750,34,499,93 753,44,497,05 756,24,494,49 760,00,490,43 590,65,384,54 353,54,233,97 312,34,207,52 281,88,189,16 220,35,152,09 114,65,87,40 107,53,83,11 73,34,62,50 71,43,58,59 68,74,52,71 61,84,40,00 59,56,43,75 40,00,75,97" fill="none" stroke="black" stroke-width="5"/>
  <text x="40" y="30" font-family="Segoe UI,Arial" font-size="20">Row 506 / parcel 30322803</text>
</svg>