<svg xmlns="http://www.w3.org/2000/svg" width="800" height="800" viewBox="0 0 800 800">
  <rect width="800" height="800" fill="white"/>
  <polygon points="754,93,375,40 755,37,369,47 755,79,365,03 756,23,359,85 756,65,355,41 635,86,328,61 620,62,323,86 613,00,320,75 601,77,316,83 580,13,307,51 538,82,292,62 495,45,274,88 487,51,271,61 479,90,267,02 472,69,263,17 465,48,258,58 451,47,250,15 437,85,241,73 423,84,233,31 411,83,224,92 400,23,216,54 388,22,208,15 373,01,198,22 357,80,187,54 342,59,177,61 269,33,129,11 244,51,112,69 186,50,67,82 162,50,48,08 151,30,40,00 146,46,41,83 125,91,51,82 108,47,81,89 93,37,122,38 67,92,218,30 61,30,251,78 55,51,281,09 51,34,307,70 41,73,372,78 40,90,377,95 40,46,383,87 40,03,389,06 40,00,394,25 40,38,398,70 40,75,403,90 43,11,412,85 44,70,416,58 63,37,474,61 71,32,492,48 71,74,493,41 88,19,525,48 116,90,580,37 120,08,587,11 124,06,593,86 130,83,604,37 145,19,622,44 155,17,634,50 164,74,647,29 174,72,657,87 183,52,665,45 201,13,677,65 217,96,685,39 225,98,688,51 235,21,691,66 244,43,694,06 253,26,696,46 273,31,704,26 292,95,712,79 312,19,720,43 312,59,720,59 319,41,722,94 346,27,733,10 378,75,744,85 387,58,747,24 396,41,748,90 401,18,750,18 405,24,751,29 429,32,756,21 454,62,758,92 472,29,760,00 509,28,756,26 517,32,754,94 525,77,753,62 533,81,752,29 542,66,750,23 551,12,747,43 559,97,745,38 601,45,729,12 681,95,703,98 683,15,705,48 685,80,663,27 695,09,653,81 697,92,651,64 703,58,644,33 708,47,632,56 710,12,625,92 721,17,590,54 733,14,534,41 751,24,459,86 760,00,402,93 754,86,388,00 754,93,375,40" fill="none" stroke="black" stroke-width="5"/>
  <text x="40" y="30" font-family="Segoe UI,Arial" font-size="20">Row 51 / parcel 28944183</text>
</svg>